<?xml version="1.0" encoding="UTF-8"?>
<!DOCTYPE svg PUBLIC "-//W3C//DTD SVG 1.1//EN" "http://www.w3.org/Graphics/SVG/1.1/DTD/svg11.dtd">
<svg xmlns="http://www.w3.org/2000/svg" version="1.1" width="500px" height="500px" style="shape-rendering:geometricPrecision; text-rendering:geometricPrecision; image-rendering:optimizeQuality; fill-rule:evenodd; clip-rule:evenodd" xmlns:xlink="http://www.w3.org/1999/xlink">
<g><path style="opacity:1" fill="#028e39" d="M 242.5,65.5 C 288.034,65.2421 329.367,79.5754 366.5,108.5C 415.484,150.605 437.651,203.938 433,268.5C 424.168,339.89 386.668,390.39 320.5,420C 258.79,443.285 200.124,437.285 144.5,402C 103.326,372.545 77.6591,334.045 67.5,286.5C 68.6096,284.504 68.2763,282.671 66.5,281C 67.0219,280.439 67.3552,279.772 67.5,279C 57.3766,207.684 81.7099,148.684 140.5,102C 172.155,79.8604 206.155,67.6937 242.5,65.5 Z"/></g>
<g><path style="opacity:1" fill="#000100" d="M 239.5,90.5 C 308.212,89.8013 359.378,119.135 393,178.5C 410.476,214.99 414.476,252.99 405,292.5C 387.792,347.376 351.959,384.209 297.5,403C 238.567,418.75 185.9,407.084 139.5,368C 91.9729,320.074 77.8063,263.574 97,198.5C 123.099,134.231 170.599,98.2306 239.5,90.5 Z"/></g>
<g><path style="opacity:0.831" fill="#1e5634" d="M 325.5,127.5 C 274.669,126.501 223.669,126.168 172.5,126.5C 197.262,125.829 222.762,125.496 249,125.5C 274.833,125.833 300.667,126.167 326.5,126.5C 326.376,127.107 326.043,127.44 325.5,127.5 Z"/></g>
<g><path style="opacity:1" fill="#018e39" d="M 172.5,126.5 C 223.669,126.168 274.669,126.501 325.5,127.5C 309.38,148.125 293.047,168.625 276.5,189C 266.5,189.667 256.5,189.667 246.5,189C 255.388,177.379 264.388,165.879 273.5,154.5C 274.043,154.44 274.376,154.107 274.5,153.5C 247.175,152.5 219.841,152.167 192.5,152.5C 185.481,144.143 178.815,135.476 172.5,126.5 Z"/></g>
<g><path style="opacity:0.831" fill="#072312" d="M 192.5,152.5 C 219.841,152.167 247.175,152.5 274.5,153.5C 274.376,154.107 274.043,154.44 273.5,154.5C 246.5,153.833 219.5,153.167 192.5,152.5 Z"/></g>
<g><path style="opacity:1" fill="#028d39" d="M 192.5,190.5 C 198.167,191.167 203.833,191.833 209.5,192.5C 208.37,205.788 208.203,219.122 209,232.5C 209.833,233.333 210.667,234.167 211.5,235C 236.167,235.667 260.833,235.667 285.5,235C 286.333,234.167 287.167,233.333 288,232.5C 288.813,219.092 288.647,205.758 287.5,192.5C 292.833,191.833 298.167,191.167 303.5,190.5C 304.552,190.649 305.552,190.483 306.5,190C 309.327,186.695 312.994,185.028 317.5,185C 325.301,184.105 332.967,184.772 340.5,187C 343.833,192.349 348,197.183 353,201.5C 356.721,206.275 359.388,211.609 361,217.5C 364.549,238.792 367.882,260.125 371,281.5C 372.856,294.847 372.856,308.181 371,321.5C 365.04,338.492 353.54,344.325 336.5,339C 330.169,335.002 325.669,329.502 323,322.5C 319.62,308.638 315.786,294.971 311.5,281.5C 302.209,292.429 290.875,295.263 277.5,290C 274.537,288.039 271.871,285.706 269.5,283C 255.821,282.167 242.154,282.334 228.5,283.5C 218.933,293.257 207.933,295.09 195.5,289C 192.354,286.688 189.354,284.188 186.5,281.5C 182.694,294.721 179.194,308.054 176,321.5C 168.005,340.928 154.839,345.761 136.5,336C 128.637,327.404 124.971,317.237 125.5,305.5C 128.194,275.277 132.361,245.277 138,215.5C 139.393,211.714 141.059,208.048 143,204.5C 148.319,198.961 153.152,193.128 157.5,187C 167.812,183.83 178.145,183.83 188.5,187C 189.705,188.376 191.038,189.542 192.5,190.5 Z"/></g>
<g><path style="opacity:0.844" fill="#22603a" d="M 192.5,190.5 C 198.537,190.171 204.537,190.504 210.5,191.5C 210.376,192.107 210.043,192.44 209.5,192.5C 203.833,191.833 198.167,191.167 192.5,190.5 Z"/></g>
<g><path style="opacity:0.821" fill="#1b4e2f" d="M 303.5,190.5 C 298.167,191.167 292.833,191.833 287.5,192.5C 286.957,192.44 286.624,192.107 286.5,191.5C 292.128,190.505 297.794,190.171 303.5,190.5 Z"/></g>
<g><path style="opacity:1" fill="#000201" d="M 196.5,195.5 C 198.144,195.286 199.644,195.62 201,196.5C 201.667,200.167 201.667,203.833 201,207.5C 199.604,209.527 197.938,209.86 196,208.5C 195.232,204.08 195.398,199.747 196.5,195.5 Z"/></g>
<g><path style="opacity:0.998" fill="#010502" d="M 296.5,195.5 C 298.167,195.5 299.833,195.5 301.5,195.5C 301.666,199.846 301.499,204.179 301,208.5C 299.542,209.747 298.042,209.747 296.5,208.5C 295.23,204.119 295.23,199.785 296.5,195.5 Z"/></g>
<g><path style="opacity:0.998" fill="#000100" d="M 324.5,197.5 C 333.498,197.329 337.331,201.662 336,210.5C 333.571,215.202 329.738,217.035 324.5,216C 319.268,213.367 317.435,209.201 319,203.5C 320.36,200.977 322.193,198.977 324.5,197.5 Z"/></g>
<g><path style="opacity:0.998" fill="#000301" d="M 162.5,201.5 C 174.665,198.832 179.165,203.498 176,215.5C 173.651,218.017 171.151,220.35 168.5,222.5C 160.26,217.278 158.26,210.278 162.5,201.5 Z"/></g>
<g><path style="opacity:0.998" fill="#000301" d="M 304.5,216.5 C 313.827,215.329 317.994,219.329 317,228.5C 314.367,233.732 310.201,235.565 304.5,234C 299.845,231.103 298.345,226.937 300,221.5C 301.025,219.313 302.525,217.646 304.5,216.5 Z"/></g>
<g><path style="opacity:0.998" fill="#000100" d="M 343.5,216.5 C 352.323,215.822 356.157,219.822 355,228.5C 352.367,233.732 348.201,235.565 342.5,234C 335.559,227.495 335.893,221.662 343.5,216.5 Z"/></g>
<g><path style="opacity:0.997" fill="#000201" d="M 147.5,217.5 C 150.85,217.335 154.183,217.502 157.5,218C 160.597,220.391 162.763,223.224 164,226.5C 160.075,233.243 154.241,235.41 146.5,233C 146,232.5 145.5,232 145,231.5C 144.333,227.5 144.333,223.5 145,219.5C 145.995,218.934 146.828,218.267 147.5,217.5 Z"/></g>
<g><path style="opacity:0.999" fill="#000200" d="M 178.5,217.5 C 191.984,215.297 195.984,220.464 190.5,233C 186.5,233.667 182.5,233.667 178.5,233C 176.167,230.667 173.833,228.333 171.5,226C 173.668,223.002 176.001,220.169 178.5,217.5 Z"/></g>
<g><path style="opacity:0.999" fill="#010401" d="M 166.5,229.5 C 175.608,232.038 178.775,238.038 176,247.5C 170.969,251.413 165.969,251.413 161,247.5C 160.333,243.5 160.333,239.5 161,235.5C 163.04,233.63 164.873,231.63 166.5,229.5 Z"/></g>
<g><path style="opacity:0.997" fill="#000201" d="M 324.5,235.5 C 333.53,235.358 337.363,239.692 336,248.5C 333.103,253.155 328.937,254.655 323.5,253C 316.642,246.676 316.976,240.843 324.5,235.5 Z"/></g>
<g><path style="opacity:1" fill="#000100" d="M 239.5,241.5 C 242.674,241.952 243.007,242.952 240.5,244.5C 239.614,243.675 239.281,242.675 239.5,241.5 Z"/></g>
<g><path style="opacity:1" fill="#05140a" d="M 245.5,241.5 C 247.355,241.272 248.188,241.939 248,243.5C 245.192,244.86 244.359,244.193 245.5,241.5 Z"/></g>
<g><path style="opacity:1" fill="#010a03" d="M 251.5,241.5 C 254.674,241.952 255.007,242.952 252.5,244.5C 251.614,243.675 251.281,242.675 251.5,241.5 Z"/></g>
<g><path style="opacity:0.967" fill="#000602" d="M 257.5,241.5 C 259.465,241.948 259.798,242.948 258.5,244.5C 256.481,243.867 256.147,242.867 257.5,241.5 Z"/></g>
<g><path style="opacity:0.999" fill="#000502" d="M 203.5,242.5 C 219.814,241.652 228.314,249.318 229,265.5C 225.865,278.322 217.698,284.155 204.5,283C 192.005,278.517 186.839,269.683 189,256.5C 192.433,250.231 197.266,245.564 203.5,242.5 Z"/></g>
<g><path style="opacity:0.998" fill="#010602" d="M 283.5,242.5 C 298.491,241.325 307.157,248.158 309.5,263C 308,278.164 299.667,284.831 284.5,283C 274.531,279.856 269.198,273.023 268.5,262.5C 269.652,252.831 274.652,246.164 283.5,242.5 Z"/></g>
<g><path style="opacity:1" fill="#000100" d="M 242.5,245.5 C 244.465,245.948 244.798,246.948 243.5,248.5C 242.614,247.675 242.281,246.675 242.5,245.5 Z"/></g>
<g><path style="opacity:0.984" fill="#041006" d="M 248.5,245.5 C 249.995,245.415 250.995,246.081 251.5,247.5C 250.167,248.833 248.833,248.833 247.5,247.5C 247.863,246.817 248.196,246.15 248.5,245.5 Z"/></g>
<g><path style="opacity:1" fill="#0a1b0e" d="M 254.5,245.5 C 255.995,245.415 256.995,246.081 257.5,247.5C 256.167,248.833 254.833,248.833 253.5,247.5C 253.863,246.817 254.196,246.15 254.5,245.5 Z"/></g>
<g><path style="opacity:1" fill="#0a8d3c" d="M 205.5,248.5 C 215.654,248.158 221.32,252.991 222.5,263C 220.064,275.886 212.731,279.886 200.5,275C 195.798,270.078 194.298,264.245 196,257.5C 197.775,252.888 200.942,249.888 205.5,248.5 Z"/></g>
<g><path style="opacity:0.984" fill="#000200" d="M 245.5,250.5 C 248.957,250.667 249.29,251.667 246.5,253.5C 245.614,252.675 245.281,251.675 245.5,250.5 Z"/></g>
<g><path style="opacity:1" fill="#0d8d3c" d="M 286.5,248.5 C 299.935,249.364 305.102,256.364 302,269.5C 294.049,279.548 285.716,279.881 277,270.5C 273.384,260.077 276.551,252.744 286.5,248.5 Z"/></g>
<g><path style="opacity:1" fill="#07170c" d="M 250.5,250.5 C 255.833,251.5 255.833,252.5 250.5,253.5C 250.5,252.5 250.5,251.5 250.5,250.5 Z"/></g>
<g><path style="opacity:1" fill="#010703" d="M 204.5,253.5 C 215.324,252.156 219.824,256.823 218,267.5C 211.256,275.735 204.923,275.401 199,266.5C 197.571,260.7 199.404,256.367 204.5,253.5 Z"/></g>
<g><path style="opacity:0.998" fill="#010603" d="M 287.5,252.5 C 297.741,253.554 301.241,258.888 298,268.5C 293.225,274.125 287.891,274.792 282,270.5C 277.411,262.286 279.244,256.286 287.5,252.5 Z"/></g>
<g><path style="opacity:0.997" fill="#010602" d="M 246.5,259.5 C 254.52,259.392 256.854,262.892 253.5,270C 245.41,272.916 242.243,270.082 244,261.5C 244.995,260.934 245.828,260.267 246.5,259.5 Z"/></g>
<g><path style="opacity:1" fill="#028e39" d="M 236.5,290.5 C 245.857,290.168 255.19,290.502 264.5,291.5C 251.192,309.309 237.692,326.976 224,344.5C 223.383,345.449 223.549,346.282 224.5,347C 251.833,347.333 279.167,347.667 306.5,348C 313.287,356.409 319.954,364.909 326.5,373.5C 274.833,374.833 223.167,374.833 171.5,373.5C 192.934,345.622 214.601,317.955 236.5,290.5 Z"/></g>
</svg>
