<?xml version="1.0" standalone="no"?>
<!DOCTYPE svg PUBLIC "-//W3C//DTD SVG 20010904//EN"
 "http://www.w3.org/TR/2001/REC-SVG-20010904/DTD/svg10.dtd">
<svg version="1.0" xmlns="http://www.w3.org/2000/svg"
 width="500.000000pt" height="500.000000pt" viewBox="0 0 500.000000 500.000000"
 preserveAspectRatio="xMidYMid meet">
<metadata>
Created by potrace 1.16, written by Peter Selinger 2001-2019
</metadata>
<g transform="translate(0.000000,500.000000) scale(0.100000,-0.100000)"
fill="#000000" stroke="none">
<path d="M2428 4334 c-2 -2 -40 -6 -84 -10 -117 -9 -124 -10 -213 -34 -23 -6
-45 -9 -48 -6 -3 2 -22 -2 -44 -9 -22 -8 -40 -14 -42 -13 -5 3 -114 -35 -154
-53 -24 -10 -46 -19 -50 -19 -9 0 -177 -83 -183 -91 -3 -3 -21 -14 -40 -24
-50 -25 -170 -107 -223 -152 -24 -21 -68 -58 -97 -82 -63 -53 -218 -233 -285
-333 -28 -40 -68 -107 -89 -148 -22 -41 -43 -76 -48 -78 -4 -2 -8 -11 -8 -21
0 -9 -4 -21 -8 -26 -5 -6 -19 -37 -32 -70 -13 -33 -28 -66 -33 -72 -5 -7 -6
-13 -2 -13 4 0 2 -7 -5 -15 -7 -8 -10 -15 -7 -15 3 0 0 -15 -8 -34 -8 -19 -12
-41 -9 -49 3 -8 0 -18 -5 -22 -6 -3 -9 -10 -6 -15 3 -5 -2 -29 -10 -55 -9 -25
-17 -61 -18 -78 -2 -18 -5 -36 -8 -42 -18 -33 -16 -506 2 -530 5 -6 8 -20 9
-30 0 -29 7 -80 10 -80 1 0 4 -9 6 -20 1 -11 5 -31 9 -45 4 -14 8 -38 11 -55
2 -16 7 -37 11 -45 3 -8 8 -23 9 -33 17 -82 181 -395 269 -512 109 -146 273
-306 414 -406 98 -69 329 -190 450 -236 203 -76 531 -122 753 -104 309 26 547
99 818 254 168 96 321 224 456 379 111 129 130 153 194 262 46 77 66 119 135
271 8 17 19 50 26 75 7 25 16 49 21 54 4 6 8 22 8 38 0 15 7 53 16 85 9 32 17
69 19 83 23 171 27 233 22 390 -4 96 -11 200 -16 230 -16 93 -41 202 -63 270
-21 67 -28 86 -72 183 -14 32 -26 60 -26 62 0 3 -18 34 -40 70 -22 36 -40 68
-40 71 0 6 -99 154 -114 170 -6 7 -31 35 -56 64 -61 71 -156 166 -215 215 -27
22 -62 51 -79 65 -68 57 -135 97 -301 182 -77 40 -170 82 -207 94 -38 12 -75
24 -83 28 -8 3 -19 6 -23 7 -4 0 -14 5 -23 10 -9 4 -40 11 -70 14 -30 3 -72
10 -94 16 -58 15 -86 18 -225 24 -69 3 -133 7 -142 9 -9 2 -18 2 -20 0z m270
-265 c381 -43 785 -262 1018 -551 32 -40 68 -83 79 -94 25 -27 145 -239 178
-314 40 -91 78 -206 87 -262 5 -29 16 -98 25 -153 13 -78 16 -135 11 -260 -3
-88 -10 -178 -16 -200 -6 -22 -13 -62 -16 -90 -4 -27 -10 -55 -15 -61 -5 -6
-7 -13 -4 -16 5 -5 -26 -99 -64 -196 -30 -75 -148 -277 -199 -342 -116 -145
-319 -326 -437 -390 -33 -18 -84 -45 -113 -62 -63 -34 -263 -114 -312 -123
-343 -66 -464 -69 -770 -16 -104 18 -283 84 -395 146 -33 18 -82 45 -109 60
-128 70 -312 232 -418 368 -128 167 -251 418 -283 582 -39 199 -48 300 -41
475 3 85 10 173 16 195 13 48 17 68 24 117 16 99 100 289 205 463 43 70 158
210 238 289 127 127 335 258 529 335 99 39 266 87 314 90 14 1 50 5 80 10 81
13 278 13 388 0z"/>
<path d="M2492 3742 l-783 -2 63 -81 c35 -45 72 -93 83 -108 11 -14 30 -37 42
-51 13 -14 23 -28 23 -32 0 -5 186 -8 413 -8 226 0 407 -4 402 -8 -6 -4 -49
-59 -97 -122 -48 -63 -108 -141 -133 -172 l-47 -58 160 0 161 0 43 55 c24 30
86 109 139 177 53 68 107 134 120 148 13 14 31 35 39 47 8 12 48 65 89 117 41
53 72 97 70 99 -2 1 -356 1 -787 -1z"/>
<path d="M1673 3148 c-79 -9 -114 -25 -133 -64 -8 -16 -34 -49 -57 -72 -36
-35 -92 -124 -94 -149 0 -5 -5 -14 -11 -20 -6 -7 -8 -13 -4 -13 3 0 1 -12 -5
-27 -11 -27 -14 -43 -24 -128 -3 -22 -7 -53 -10 -70 -14 -84 -17 -102 -20
-130 -2 -16 -7 -48 -10 -70 -4 -22 -8 -53 -10 -70 -2 -16 -7 -48 -10 -70 -15
-108 -17 -142 -19 -300 -1 -168 -1 -171 28 -228 52 -107 124 -156 227 -157 67
0 148 37 184 84 39 51 73 121 79 162 8 49 17 87 24 99 4 5 7 16 8 25 4 39 37
166 45 175 5 5 9 19 9 30 0 20 4 18 38 -15 60 -56 106 -75 188 -74 57 0 78 4
115 26 24 14 54 37 66 50 22 23 23 23 205 18 101 -3 188 -2 194 2 6 4 21 -3
35 -18 97 -104 258 -109 363 -10 l47 44 10 -25 c5 -14 7 -28 4 -33 -3 -5 -1
-11 5 -15 6 -4 8 -11 4 -16 -3 -5 -1 -16 5 -23 6 -7 12 -26 14 -42 2 -17 6
-35 10 -41 4 -6 8 -24 9 -40 1 -15 6 -34 11 -41 6 -7 7 -15 4 -19 -4 -3 -2
-12 3 -19 6 -6 13 -25 15 -40 14 -91 87 -193 163 -226 34 -15 60 -19 112 -16
58 3 76 9 119 38 28 19 51 40 51 46 0 6 7 18 16 25 14 12 30 41 33 62 0 4 7
22 15 41 10 24 13 67 11 152 -4 162 -14 294 -24 324 -5 14 -14 61 -20 105 -6
44 -14 98 -17 120 -9 56 -14 94 -18 135 -2 19 -6 51 -10 70 -3 19 -8 46 -10
60 -2 14 -9 36 -14 50 -5 14 -10 27 -10 30 -4 33 -41 106 -69 138 -7 7 -13 18
-13 23 0 5 -12 15 -26 21 -14 7 -36 33 -49 58 -22 43 -28 47 -77 58 -65 14
-178 18 -235 7 -23 -4 -52 -18 -64 -31 l-23 -24 -562 0 -562 1 -27 24 c-14 14
-34 25 -43 26 -9 0 -42 4 -72 7 -30 4 -83 4 -117 0z m1199 -101 c14 -11 16
-36 16 -188 -1 -161 -2 -176 -21 -196 l-20 -23 -354 0 -354 0 -24 25 c-25 24
-25 27 -25 190 0 114 4 171 12 185 12 19 24 20 383 20 283 -1 374 -4 387 -13z
m465 -60 c25 -25 34 -72 20 -104 -13 -30 -69 -55 -103 -47 -28 7 -64 57 -64
89 1 29 24 66 51 81 30 17 67 10 96 -19z m-1580 -34 c16 -22 16 -93 0 -113 -7
-8 -24 -26 -39 -39 l-27 -23 -40 32 c-39 32 -40 34 -37 86 1 29 8 59 15 67 17
21 111 14 128 -10z m1374 -141 c14 -5 32 -24 39 -41 36 -88 -87 -159 -147 -85
-32 40 -30 79 7 115 30 31 49 33 101 11z m378 3 c39 -20 57 -66 41 -105 -16
-39 -31 -50 -74 -54 -44 -3 -69 13 -86 53 -17 42 -5 78 33 101 38 24 49 24 86
5z m-1889 -40 l34 -35 -39 -40 c-33 -34 -45 -40 -80 -40 -60 0 -78 18 -81 78
-3 54 5 67 46 75 46 9 85 -3 120 -38z m277 30 c29 -20 39 -75 21 -111 -12 -25
-18 -28 -69 -30 -52 -1 -59 1 -78 27 -12 15 -21 36 -21 46 0 15 -2 16 -10 3
-5 -8 -10 -10 -10 -5 1 21 60 74 87 78 52 8 59 7 80 -8z m-165 -142 c33 -32
38 -43 38 -84 0 -26 -6 -51 -13 -57 -19 -16 -113 -18 -131 -3 -10 9 -16 30
-16 59 0 40 5 52 37 84 20 21 39 38 42 38 3 0 22 -17 43 -37z m1587 -38 c76
-39 55 -153 -29 -159 -67 -6 -112 60 -84 121 25 51 64 64 113 38z m-1185 -62
c4 -5 12 -9 17 -9 5 -1 13 -2 19 -3 18 -2 81 -64 97 -94 23 -45 24 -135 2
-178 -18 -37 -81 -98 -102 -100 -72 -8 -135 -5 -163 7 -61 25 -125 142 -108
196 3 11 7 26 8 32 5 22 31 71 51 94 21 25 75 57 75 45 0 -4 5 -2 12 5 13 13
80 16 92 5z m821 -4 c78 -22 156 -145 140 -220 -15 -68 -60 -133 -105 -151
-47 -19 -141 -18 -184 3 -36 17 -88 74 -88 96 0 4 -3 13 -8 18 -10 14 -10 114
1 121 5 3 9 14 9 25 0 10 5 19 10 19 6 0 10 7 10 15 0 15 73 69 105 78 35 8
69 7 110 -4z"/>
<path d="M2018 2494 c-19 -12 -41 -38 -50 -60 -19 -46 -30 -114 -18 -114 4 0
13 -13 18 -30 22 -60 124 -90 192 -55 32 17 70 65 70 89 0 9 5 16 10 16 34 0
-39 142 -79 155 -12 3 -21 9 -21 13 0 17 -90 6 -122 -14z"/>
<path d="M2830 2497 c-13 -7 -35 -28 -47 -47 -12 -19 -26 -39 -30 -45 -11 -14
-10 -75 0 -75 5 0 7 -6 4 -12 -2 -7 13 -31 33 -52 33 -34 45 -40 93 -44 46 -4
62 0 93 18 85 53 85 197 -1 250 -37 23 -107 26 -145 7z"/>
<path d="M2330 2043 c-19 -26 -40 -52 -47 -58 -6 -7 -44 -55 -85 -107 -40 -52
-109 -140 -153 -195 -154 -191 -260 -326 -270 -342 -5 -9 -23 -32 -39 -51
l-30 -35 391 -3 c215 -1 570 -1 788 0 l397 3 -31 40 c-17 22 -65 84 -107 138
l-77 97 -406 1 c-223 1 -410 1 -415 0 -11 -2 -1 11 79 112 33 41 101 128 150
192 50 65 95 123 100 129 16 17 85 115 85 121 0 3 -66 5 -147 5 l-148 -1 -35
-46z"/>
</g>
</svg>
